<svg xmlns="http://www.w3.org/2000/svg" width="51.5" height="51.5" viewBox="0 0 51.5 51.5">
  <g id="그룹_12326" data-name="그룹 12326" transform="translate(0.75 0.75)">
    <g id="그룹_12325" data-name="그룹 12325" transform="translate(10.858 10.858)">
      <path id="패스_8763" data-name="패스 8763" d="M342.86,9.389h-8.242a1.231,1.231,0,0,0-1.229,1.229V18.86a1.23,1.23,0,1,0,2.46,0V11.849h7.012a1.23,1.23,0,0,0,0-2.46Z" transform="translate(-333.389 -9.389)" fill="#da3721"/>
      <path id="패스_8764" data-name="패스 8764" d="M357.068,9.389h-8.242a1.23,1.23,0,0,0,0,2.46h7.012V18.86a1.23,1.23,0,1,0,2.46,0V10.618A1.231,1.231,0,0,0,357.068,9.389Z" transform="translate(-329.74 -9.389)" fill="#da3721"/>
      <path id="패스_8765" data-name="패스 8765" d="M342.86,31.838h-7.012V24.826a1.23,1.23,0,1,0-2.46,0v8.242a1.231,1.231,0,0,0,1.229,1.229h8.242a1.23,1.23,0,0,0,0-2.46Z" transform="translate(-333.389 -5.74)" fill="#da3721"/>
      <path id="패스_8766" data-name="패스 8766" d="M357.068,23.6a1.232,1.232,0,0,0-1.23,1.23v7.012h-7.012a1.23,1.23,0,0,0,0,2.46h8.242a1.231,1.231,0,0,0,1.229-1.229V24.826A1.231,1.231,0,0,0,357.068,23.6Z" transform="translate(-329.74 -5.74)" fill="#da3721"/>
    </g>
  </g>
</svg>
