<svg xmlns="http://www.w3.org/2000/svg" width="18" height="18" viewBox="0 0 18 18">
    <path data-name="사각형 333" style="fill:none" d="M0 0h18v18H0z"/>
    <path data-name="패스 283" d="M2 11.55V5.707a1.5 1.5 0 0 1 1.65-1.5l5.7.592h.3l5.7-.57A1.5 1.5 0 0 1 17 5.73v5.82" transform="translate(-.5 -1.125)" style="fill-rule:evenodd;stroke:#9bfff0;stroke-linecap:round;stroke-linejoin:round;stroke-width:1.5px;fill:none"/>
    <path data-name="패스 284" d="M10 7.776v3.84c0 .075.06.128.12.09l3-1.92a.128.128 0 0 0 0-.187l-3-1.913c-.06-.038-.12.014-.12.09z" transform="translate(-2.5 -1.993)" style="fill-rule:evenodd;stroke:#9bfff0;stroke-linecap:round;stroke-linejoin:round;stroke-width:1.5px;fill:none"/>
    <path data-name="패스 285" d="M3.44 17h.12A1.44 1.44 0 0 1 5 18.44v.81H2v-.81A1.44 1.44 0 0 1 3.44 17z" transform="translate(-.5 -4.325)" style="stroke:#9bfff0;stroke-linecap:round;stroke-linejoin:round;stroke-width:1.5px;fill:none"/>
    <path data-name="패스 286" d="M11.44 17h.12A1.44 1.44 0 0 1 13 18.44v.81h-3v-.81A1.44 1.44 0 0 1 11.44 17z" transform="translate(-2.5 -4.325)" style="stroke:#9bfff0;stroke-linecap:round;stroke-linejoin:round;stroke-width:1.5px;fill:none"/>
    <path data-name="패스 287" d="M19.44 17h.12A1.44 1.44 0 0 1 21 18.44v.81h-3v-.81A1.44 1.44 0 0 1 19.44 17z" transform="translate(-4.5 -4.325)" style="stroke:#9bfff0;stroke-linecap:round;stroke-linejoin:round;stroke-width:1.5px;fill:none"/>
</svg>
