<svg xmlns="http://www.w3.org/2000/svg" width="126" height="21" viewBox="0 0 126 21">
    <defs>
        <clipPath id="6ysj859ila">
            <path data-name="사각형 18" style="fill:none" d="M0 0h126v21H0z"/>
        </clipPath>
    </defs>
    <g data-name="그룹 46" style="clip-path:url(#6ysj859ila)">
        <path data-name="패스 36" d="M46.7 1.875a1.139 1.139 0 0 0-1.254-1.12H31.964v1.331h11.464v3.037a9.063 9.063 0 0 1-.455 3.2H29.5v1.333h7.84v2.557h-5.672v1.331h11.667v6.9h1.894c.919 0 1.378-.338 1.378-1.433v-5.652a1.1 1.1 0 0 0-1.144-1.146h-4.855V9.656h8.342V8.325h-3.183A6.321 6.321 0 0 0 46.7 5.03z" transform="translate(-6.881 -.176)" style="fill:#fff"/>
        <path data-name="패스 37" d="M9.279 17.385H5.55a3.034 3.034 0 0 1 .435 1.688v3.683c0 1.227.435 1.573 1.709 1.573h11.573V23H9.279z" transform="translate(-1.295 -4.062)" style="fill:#fff"/>
        <path data-name="패스 38" d="M12.04 1.739H7.657V0H4.04a2.228 2.228 0 0 1 .344 1.376v.362H0V3.07h2.865A4.785 4.785 0 0 0 .717 7.047a5.037 5.037 0 0 0 5.272 4.907 5.05 5.05 0 0 0 5.294-4.907A4.777 4.777 0 0 0 9.125 3.07h2.915zm-6.053 8.867c-1.441 0-2.408-1.452-2.421-3.542.014-2.09.981-3.543 2.421-3.543S8.42 4.974 8.433 7.064c-.013 2.09-.991 3.542-2.446 3.542" style="fill:#fff"/>
        <path data-name="패스 39" d="M21.327.575H17.6a2.489 2.489 0 0 1 .455 1.717v12.345h1.891c.929 0 1.38-.408 1.38-1.428V6.646h3.225V5.313h-3.224z" transform="translate(-4.106 -.134)" style="fill:#fff"/>
        <path data-name="패스 40" d="M107.182.605a2.21 2.21 0 0 1 .646 1.694v18.11h1.515c1.041 0 1.451-.66 1.451-1.705V.605z" transform="translate(-25.002 -.141)" style="fill:#fff"/>
        <path data-name="패스 41" d="M101.278 6.883h-3.195v1.33h3.195V18.6h1.422c1.031 0 1.519-.6 1.519-1.8V.605h-3.523a2.312 2.312 0 0 1 .585 1.694z" transform="translate(-22.879 -.141)" style="fill:#fff"/>
        <path data-name="패스 42" d="M69.407 2.889a1.058 1.058 0 0 0-1.087-1.258H59.6v1.334h6.492c0 4.722-2.837 7.7-7.6 8.5l.59.893c6.148-.728 9.87-3.562 10.32-9.472" transform="translate(-13.645 -.381)" style="fill:#fff"/>
        <path data-name="패스 43" d="M77.9.605h-3.76a2.413 2.413 0 0 1 .58 1.714v1.472H71.3v1.333h3.42v1.93h-3.528v1.332h3.528v3.044a6.837 6.837 0 0 0-2.746-.563c-3.183 0-5.854 2.091-5.9 5.137.044 3.045 2.715 5.138 5.9 5.138S77.852 19.049 77.9 16c0-.056 0-.113-.008-.169l.008.006zm-5.929 19.146c-1.713 0-2.861-1.529-2.878-3.728.017-2.2 1.165-3.731 2.878-3.731 1.731 0 2.891 1.53 2.908 3.731-.018 2.2-1.178 3.728-2.908 3.728" transform="translate(-15.413 -.141)" style="fill:#fff"/>
        <path data-name="패스 44" d="M96.172 2.8a1.071 1.071 0 0 0-1.182-1.169h-7.682v1.333h5.663c0 4.1-2.861 6.677-7.068 8.2A15.251 15.251 0 0 1 96.285 17.5v-4.054a13.509 13.509 0 0 0-6.122-2.688c3.21-1.21 6.009-5.179 6.009-7.962" transform="translate(-20.038 -.381)" style="fill:#fff"/>
        <path data-name="패스 45" d="m146.465.605 5.165 15.677L156.64.605h2.655s-5.989 17.882-6.251 18.632a1.753 1.753 0 0 1-1.757 1.172h-1.908L142.735.605z" transform="translate(-33.295 -.141)" style="fill:#fff"/>
        <path data-name="패스 46" d="M135.045.605h-17.334V2.4h6.956v18.009h1.852a1.412 1.412 0 0 0 1.57-1.372V2.4h6.956z" transform="translate(-27.458 -.141)" style="fill:#fff"/>
        <path data-name="패스 47" d="M143.995.605h-2.039a3.034 3.034 0 0 1 1.149 1.647" transform="translate(-33.113 -.141)" style="fill:#fff"/>
    </g>
</svg>
