<svg xmlns="http://www.w3.org/2000/svg" width="800" height="75" viewBox="0 0 800 75">
    <defs>
        <clipPath id="asrz3pfkga">
            <path data-name="사각형 2" style="fill:#fff" d="M0 0h800v75H0z"/>
        </clipPath>
    </defs>
    <g data-name="text-ELYPECS SUMMIT">
        <path data-name="패스 1" d="M0 .1v73.75h48.694V61H14.43V43.084h29.176V30.245H14.43v-17.3h34.264V.1z" transform="translate(0 .521)" style="fill:#fff"/>
        <path data-name="패스 2" d="M9.762.1v73.75h47.967V61H24.2V.1z" transform="translate(50.956 .521)" style="fill:#fff"/>
        <path data-name="패스 3" d="m59.438.1-13.6 29.73L32.028.1H16.354l22.217 43.511V73.85h14.324V43.611L75.118.1z" transform="translate(85.364 .521)" style="fill:#fff"/>
        <g data-name="그룹 2">
            <g data-name="그룹 1" style="clip-path:url(#asrz3pfkga)">
                <path data-name="패스 4" d="M55.465 46.1H41.286v27.753H26.9V.1h28.565c15.208 0 24.322 10.463 24.322 23s-9.114 23-24.322 23m-.725-33.15H41.286v20.2H54.74c6.522-.006 10.66-4.05 10.66-10.05s-4.138-10.155-10.66-10.155" transform="translate(139.888 .521)" style="fill:#fff"/>
                <path data-name="패스 5" d="M37.048 73.858V.1h48.539v12.851H51.432v17.3h29.084v12.84H51.432v17.922h34.155v12.845z" transform="translate(192.646 .518)" style="fill:#fff"/>
                <path data-name="패스 6" d="M73.522 75a27 27 0 0 1-19.871-8.086 21.275 21.275 0 0 1-6-11.083Q46.4 49.613 46.41 37.5q0-12.129 1.24-18.337a20.885 20.885 0 0 1 6-11.083A26.99 26.99 0 0 1 73.522 0C87.7 0 98.155 8.284 100.641 23.308H86.046c-1.55-6.323-5.487-10.469-12.418-10.469-3.931 0-7.037 1.247-9.213 3.841-3 3.208-3.621 6.522-3.621 20.82s.62 17.611 3.621 20.82c2.176 2.588 5.282 3.835 9.213 3.835 6.932 0 10.868-4.145 12.418-10.469h14.595C98.155 66.709 87.6 75 73.522 75" transform="translate(241.328 .001)" style="fill:#fff"/>
                <path data-name="패스 7" d="M82.663 75C71.484 75 63 72.611 55.755 65.264l9.312-9.327c4.656 4.667 10.974 6.218 17.8 6.218 8.488 0 13.045-3.214 13.045-9.116a8.2 8.2 0 0 0-2.275-6.218c-1.451-1.347-3.106-2.073-6.522-2.588l-8.9-1.241c-6.311-.937-10.968-2.9-14.278-6.119-3.522-3.519-5.282-8.284-5.282-14.5C58.65 9.215 68.378 0 84.324 0c10.137 0 17.49 2.482 23.8 8.595l-9.1 9.017c-4.662-4.456-10.254-5.077-15.124-5.077-7.657 0-11.383 4.245-11.383 9.321a7.127 7.127 0 0 0 2.183 5.281 12.65 12.65 0 0 0 6.826 2.9l8.7 1.241c6.727.931 10.968 2.8 14.074 5.7 3.931 3.736 5.692 9.116 5.692 15.644C109.986 66.914 98.082 75 82.663 75" transform="translate(289.921 .001)" style="fill:#fff"/>
                <path data-name="패스 8" d="M95.729 75c-11.178 0-19.666-2.389-26.908-9.736l9.312-9.327c4.656 4.667 10.974 6.218 17.8 6.218 8.488 0 13.045-3.214 13.045-9.116a8.2 8.2 0 0 0-2.275-6.218c-1.451-1.347-3.106-2.073-6.522-2.588l-8.9-1.241c-6.312-.937-10.968-2.9-14.278-6.119-3.522-3.519-5.282-8.284-5.282-14.5C71.716 9.215 81.444 0 97.39 0c10.137 0 17.49 2.482 23.8 8.595l-9.1 9.017c-4.656-4.456-10.248-5.076-15.115-5.076-7.657 0-11.383 4.245-11.383 9.321a7.127 7.127 0 0 0 2.176 5.281 12.65 12.65 0 0 0 6.826 2.9l8.7 1.241c6.727.931 10.968 2.8 14.074 5.7 3.931 3.736 5.692 9.116 5.692 15.644C123.06 66.914 111.16 75 95.737 75" transform="translate(357.863 .001)" style="fill:#fff"/>
                <path data-name="패스 9" d="M106.347 74.479c-15.109 0-27.112-10.258-27.112-25.9V.1h14.384v47.963c0 8.489 4.966 13.571 12.728 13.571s12.834-5.082 12.834-13.571V.1h14.285v48.478c0 15.644-12 25.9-27.118 25.9" transform="translate(412.015 .521)" style="fill:#fff"/>
                <path data-name="패스 10" d="M142.6 73.858V30.866l-14.08 27.968h-9.72l-14.184-27.968v42.992H90.233V.1h14.179l19.245 39.883L142.8.1h14.179v73.758z" transform="translate(469.203 .518)" style="fill:#fff"/>
                <path data-name="패스 11" d="M155.8 73.858V30.866l-14.08 27.968H132l-14.183-27.968v42.992h-14.384V.1h14.179l19.245 39.883L156 .1h14.179v73.758z" transform="translate(537.842 .518)" style="fill:#fff"/>
                <path data-name="사각형 1" transform="translate(723.115 .621)" style="fill:#fff" d="M0 0h14.384v73.759H0z"/>
                <path data-name="패스 12" d="M154.138 12.945v60.908h-14.384V12.945H120.5V.1h52.885v12.845z" transform="translate(626.609 .521)" style="fill:#fff"/>
            </g>
        </g>
    </g>
</svg>
