<svg xmlns="http://www.w3.org/2000/svg" width="98" height="40" viewBox="0 0 98 40">
    <defs>
        <clipPath id="dc72ebyoaa">
            <path data-name="사각형 3" style="fill:none" d="M0 0h98v40H0z"/>
        </clipPath>
    </defs>
    <g data-name="그룹 4" style="clip-path:url(#dc72ebyoaa)">
        <path data-name="패스 13" d="M22.3 16.515h-7.062a.194.194 0 0 1-.2-.192V6.372a.192.192 0 0 1 .2-.19H22.3v2.261h-4.438a.192.192 0 0 0-.2.19v1.346a.194.194 0 0 0 .2.192h3.768v2.261h-3.768a.194.194 0 0 0-.2.192v1.438a.194.194 0 0 0 .2.192H22.3z" transform="translate(22.294 8.656)" style="fill:#fff"/>
        <path data-name="패스 14" d="M25.631 16.515h-6.714a.194.194 0 0 1-.2-.192V6.372a.192.192 0 0 1 .2-.19h2.423v8.072h4.49v2.069a.2.2 0 0 1-.2.192" transform="translate(27.743 8.656)" style="fill:#fff"/>
        <path data-name="패스 15" d="m30.262 6.459-3.078 5.847v4.018a.2.2 0 0 1-.2.192h-2.229a.2.2 0 0 1-.2-.192v-4.017l-3.084-5.848a.193.193 0 0 1 .179-.278h2.55L25.884 9.9l1.661-3.716h2.542a.192.192 0 0 1 .176.278" transform="translate(31.791 8.654)" style="fill:#fff"/>
        <path data-name="패스 16" d="M33.374 9.506a3.24 3.24 0 0 1-1.674 2.857 3.944 3.944 0 0 1-1.971.466H28.12v3.687h-2.428a.194.194 0 0 1-.2-.192V6.372a.192.192 0 0 1 .2-.19h4.036a3.927 3.927 0 0 1 1.968.463 3.232 3.232 0 0 1 1.251 1.222 3.279 3.279 0 0 1 .427 1.639m-2.624 0a1.018 1.018 0 0 0-.137-.516.986.986 0 0 0-.4-.384 1.231 1.231 0 0 0-.606-.146H28.12v2.086h1.492a1.205 1.205 0 0 0 .606-.146 1 1 0 0 0 .534-.893" transform="translate(37.788 8.656)" style="fill:#fff"/>
        <path data-name="패스 17" d="M36.438 16.515h-7.067a.194.194 0 0 1-.2-.192V6.372a.192.192 0 0 1 .2-.19h7.067v2.261h-4.443a.192.192 0 0 0-.2.19v1.346a.194.194 0 0 0 .2.192h3.768v2.261h-3.768a.194.194 0 0 0-.2.192v1.438a.194.194 0 0 0 .2.192h4.443z" transform="translate(43.241 8.656)" style="fill:#fff"/>
        <path data-name="패스 18" d="M40.811 13.285a4.551 4.551 0 0 1-.5 1.471 3.448 3.448 0 0 1-.9 1.066 3.741 3.741 0 0 1-1.211.624 4.908 4.908 0 0 1-1.437.206 4.06 4.06 0 0 1-2.963-1.164 3.028 3.028 0 0 1-.894-1.543 10.537 10.537 0 0 1-.191-2.2v-.694a10.562 10.562 0 0 1 .191-2.2A3.032 3.032 0 0 1 33.8 7.3a4.031 4.031 0 0 1 1.318-.869 4.387 4.387 0 0 1 1.646-.288 4.888 4.888 0 0 1 1.467.209 3.733 3.733 0 0 1 1.191.624 3.513 3.513 0 0 1 .891 1.056 4.5 4.5 0 0 1 .5 1.479h-2.524a.2.2 0 0 1-.189-.137 1.672 1.672 0 0 0-.407-.667 1.276 1.276 0 0 0-.921-.3 1.439 1.439 0 0 0-.606.122 1.156 1.156 0 0 0-.427.31 1.307 1.307 0 0 0-.223.408 3.249 3.249 0 0 0-.134.722c-.03.324-.047.8-.047 1.431a10.786 10.786 0 0 0 .1 1.759 1.856 1.856 0 0 0 .308.792 1.242 1.242 0 0 0 1.033.439 1.281 1.281 0 0 0 .913-.3 1.657 1.657 0 0 0 .415-.667.2.2 0 0 1 .189-.137z" transform="translate(48.483 8.605)" style="fill:#fff"/>
        <path data-name="패스 19" d="M44.391 13.4a2.819 2.819 0 0 1-.554 1.75 3.407 3.407 0 0 1-1.494 1.116 5.487 5.487 0 0 1-2.08.379 7.8 7.8 0 0 1-2.308-.3 4.232 4.232 0 0 1-1.745-1.056l1.554-1.5a.207.207 0 0 1 .273-.007 2.415 2.415 0 0 0 .9.434 5.15 5.15 0 0 0 1.34.173c1.023 0 1.531-.307 1.531-.927a.823.823 0 0 0-.211-.61 1.191 1.191 0 0 0-.7-.276l-1.291-.176a3.643 3.643 0 0 1-2.15-.915 2.813 2.813 0 0 1-.732-2.079 3.066 3.066 0 0 1 .476-1.683 3.181 3.181 0 0 1 1.355-1.159 4.793 4.793 0 0 1 2.07-.418 6.509 6.509 0 0 1 2.063.3 3.944 3.944 0 0 1 1.544.939l-1.519 1.461a.2.2 0 0 1-.271 0 1.76 1.76 0 0 0-.75-.379 5.228 5.228 0 0 0-1.142-.108 1.415 1.415 0 0 0-.961.29.87.87 0 0 0-.33.667.642.642 0 0 0 .213.482 1.257 1.257 0 0 0 .732.3l1.291.17a3.754 3.754 0 0 1 2.1.857 2.282 2.282 0 0 1 .606.946 4.187 4.187 0 0 1 .186 1.323" transform="translate(53.668 8.605)" style="fill:#fff"/>
        <path data-name="패스 20" d="M27.948 40.009H.984A.97.97 0 0 1 0 39.057V.952A.968.968 0 0 1 .984 0H27.9v9.069H10.362a.967.967 0 0 0-.983.953v19.966a.968.968 0 0 0 .983.953h17.586z" transform="translate(-.001)" style="fill:#ff3232"/>
        <path data-name="패스 21" d="M17.372 11.243a5.061 5.061 0 0 1-5.143 4.973 5.061 5.061 0 0 1-5.143-4.973 5.061 5.061 0 0 1 5.143-4.973 5.061 5.061 0 0 1 5.143 4.973" transform="translate(10.502 8.779)" style="fill:#ff3232"/>
        <path data-name="패스 22" d="M19.6 15.415a2.254 2.254 0 0 0-.64-.526 1.892 1.892 0 0 0-.933-.214 1.824 1.824 0 0 0-.9.214.669.669 0 0 0-.38.619.7.7 0 0 0 .218.535 1.745 1.745 0 0 0 .516.326 2.959 2.959 0 0 0 .643.19c.228.041.422.079.586.108a7.88 7.88 0 0 1 .884.269 2.513 2.513 0 0 1 .712.408 1.786 1.786 0 0 1 .472.612 2.035 2.035 0 0 1 .169.879 2 2 0 0 1-.273 1.073 2.3 2.3 0 0 1-.715.732 3.106 3.106 0 0 1-1 .408 5.282 5.282 0 0 1-1.129.122 4.61 4.61 0 0 1-1.678-.281 3 3 0 0 1-1.291-1.035l1.1-.881a4.473 4.473 0 0 0 .794.612 2.023 2.023 0 0 0 1.07.269 3 3 0 0 0 .561-.055 1.816 1.816 0 0 0 .5-.173 1.086 1.086 0 0 0 .355-.3.674.674 0 0 0 .139-.418.7.7 0 0 0-.2-.516 1.577 1.577 0 0 0-.487-.324 3.925 3.925 0 0 0-.6-.187c-.211-.046-.4-.086-.561-.118a9.318 9.318 0 0 1-.891-.25 2.731 2.731 0 0 1-.747-.377 1.763 1.763 0 0 1-.519-.6 1.855 1.855 0 0 1-.2-.9 1.993 1.993 0 0 1 .251-1.013 2.21 2.21 0 0 1 .665-.713 3.07 3.07 0 0 1 .943-.425 4.093 4.093 0 0 1 1.06-.139 4.044 4.044 0 0 1 1.494.281 2.365 2.365 0 0 1 1.134.941z" transform="translate(22.026 18.707)" style="fill:#fff"/>
        <path data-name="패스 23" d="M24.707 20.876h-1.459v-1.148h-.032a2.127 2.127 0 0 1-.956.967 3.28 3.28 0 0 1-1.576.367 3.4 3.4 0 0 1-1.07-.163 2.4 2.4 0 0 1-.884-.509 2.442 2.442 0 0 1-.608-.888 3.24 3.24 0 0 1-.228-1.277v-4.788h1.462v4.393a2.439 2.439 0 0 0 .144.891 1.64 1.64 0 0 0 .39.6 1.453 1.453 0 0 0 .558.329 2.091 2.091 0 0 0 .658.1 2.5 2.5 0 0 0 .846-.139 1.776 1.776 0 0 0 .68-.449 2.113 2.113 0 0 0 .454-.775 3.4 3.4 0 0 0 .161-1.116v-3.834h1.459z" transform="translate(26.521 18.815)" style="fill:#fff"/>
        <path data-name="패스 24" d="M21.4 13.546h1.363v1.162h.032a1.215 1.215 0 0 1 .253-.394 2.48 2.48 0 0 1 .519-.444 3.088 3.088 0 0 1 .747-.362 3.165 3.165 0 0 1 2.386.192 2.608 2.608 0 0 1 .956 1.037 2.446 2.446 0 0 1 1.059-1.037 3.046 3.046 0 0 1 1.38-.343 3.3 3.3 0 0 1 1.459.281 2.359 2.359 0 0 1 .891.746 2.751 2.751 0 0 1 .447 1.051 5.923 5.923 0 0 1 .124 1.217v4.33h-1.461v-4.14a5.777 5.777 0 0 0-.057-.816 1.879 1.879 0 0 0-.233-.691 1.343 1.343 0 0 0-.506-.478 2.133 2.133 0 0 0-2.368.446 2.688 2.688 0 0 0-.452 1.615v4.066h-1.463v-3.89a7.745 7.745 0 0 0-.057-.975 2.209 2.209 0 0 0-.226-.761 1.255 1.255 0 0 0-.489-.5 1.715 1.715 0 0 0-.849-.18 1.947 1.947 0 0 0-.755.149 1.756 1.756 0 0 0-.643.449 2.115 2.115 0 0 0-.437.759 3.277 3.277 0 0 0-.161 1.09v3.862H21.4z" transform="translate(31.715 18.706)" style="fill:#fff"/>
        <path data-name="패스 25" d="M26.836 13.546H28.2v1.162h.032a1.214 1.214 0 0 1 .253-.394A2.48 2.48 0 0 1 29 13.87a3.089 3.089 0 0 1 .747-.362 3.165 3.165 0 0 1 2.393.194 2.608 2.608 0 0 1 .956 1.037 2.446 2.446 0 0 1 1.057-1.039 3.046 3.046 0 0 1 1.38-.343 3.3 3.3 0 0 1 1.459.281 2.359 2.359 0 0 1 .891.746 2.751 2.751 0 0 1 .447 1.051 5.924 5.924 0 0 1 .124 1.217v4.33h-1.461v-4.14a5.778 5.778 0 0 0-.057-.816 1.879 1.879 0 0 0-.233-.691 1.343 1.343 0 0 0-.506-.478 2.133 2.133 0 0 0-2.368.446 2.688 2.688 0 0 0-.452 1.615v4.066h-1.463v-3.89a7.744 7.744 0 0 0-.057-.975 2.209 2.209 0 0 0-.226-.761 1.255 1.255 0 0 0-.489-.5 1.715 1.715 0 0 0-.849-.18 1.947 1.947 0 0 0-.755.149 1.756 1.756 0 0 0-.643.449 2.115 2.115 0 0 0-.437.759 3.277 3.277 0 0 0-.161 1.09v3.862h-1.461z" transform="translate(39.774 18.706)" style="fill:#fff"/>
        <path data-name="패스 26" d="M32.182 12.928a.979.979 0 0 1 .318-.728 1.049 1.049 0 0 1 .755-.3 1.036 1.036 0 0 1 .752.3 1 1 0 0 1 0 1.459 1.036 1.036 0 0 1-.752.3 1.049 1.049 0 0 1-.755-.3.982.982 0 0 1-.318-.732m.343 2.669h1.459v7.439h-1.459z" transform="translate(47.698 16.657)" style="fill:#fff"/>
        <path data-name="패스 27" d="M38.5 15.878h-2.091v3.372c0 .211 0 .418.017.622a1.588 1.588 0 0 0 .122.55.873.873 0 0 0 .325.391 1.118 1.118 0 0 0 .64.149 3.463 3.463 0 0 0 .534-.046 1.5 1.5 0 0 0 .5-.175v1.289a2.025 2.025 0 0 1-.673.2 5.774 5.774 0 0 1-.643.053 3 3 0 0 1-1.306-.228 1.579 1.579 0 0 1-.683-.588 1.871 1.871 0 0 1-.258-.807c-.027-.3-.042-.6-.042-.9v-3.882h-1.68v-1.224h1.685v-2.086h1.462v2.086H38.5z" transform="translate(49.299 17.598)" style="fill:#fff"/>
    </g>
</svg>
