<svg id="레이어_1" data-name="레이어 1" xmlns="http://www.w3.org/2000/svg" viewBox="0 0 233.04 279.51"><defs><style>.cls-1{fill:#231815;}.cls-2{fill:none;stroke:#231815;stroke-linecap:round;stroke-linejoin:round;stroke-width:5px;}</style></defs><path class="cls-1" d="M50,870.48a45,45,0,1,1-45,45,45.05,45.05,0,0,1,45-45m0-5a50,50,0,1,0,50,50,50,50,0,0,0-50-50Z" transform="translate(0 -685.97)"/><polyline class="cls-2" points="61.25 254.23 36.53 229.51 61.25 204.79"/><path class="cls-1" d="M183,691a45,45,0,1,1-45,45,45,45,0,0,1,45-45m0-5a50,50,0,1,0,50,50,50,50,0,0,0-50-50Z" transform="translate(0 -685.97)"/><path class="cls-1" d="M170.68,763.19a2.49,2.49,0,0,0,1.77-.73l24.72-24.72a2.51,2.51,0,0,0,0-3.54l-24.72-24.72a2.5,2.5,0,0,0-3.53,3.54l23,23-23,22.95a2.5,2.5,0,0,0,0,3.54A2.45,2.45,0,0,0,170.68,763.19Z" transform="translate(0 -685.97)"/><path class="cls-1" d="M50,691A45,45,0,1,1,5,736a45.05,45.05,0,0,1,45-45m0-5a50,50,0,1,0,50,50,50,50,0,0,0-50-50Z" transform="translate(0 -685.97)"/><path class="cls-1" d="M62.36,763.19a2.49,2.49,0,0,1-1.77-.73L35.87,737.74a2.51,2.51,0,0,1,0-3.54l24.72-24.72A2.5,2.5,0,0,1,64.13,713L41.18,736l22.95,22.95a2.52,2.52,0,0,1,0,3.54A2.49,2.49,0,0,1,62.36,763.19Z" transform="translate(0 -685.97)"/></svg>