<?xml version="1.0" encoding="utf-8"?>
<!-- Generator: Adobe Illustrator 23.0.3, SVG Export Plug-In . SVG Version: 6.00 Build 0)  -->
<svg version="1.1" id="Layer_1" xmlns="http://www.w3.org/2000/svg" xmlns:xlink="http://www.w3.org/1999/xlink" x="0px" y="0px"
	 viewBox="0 0 24 24" style="enable-background:new 0 0 24 24;" xml:space="preserve">
<style type="text/css">
	.st0{fill:#3C3835;}
	.st1{fill:none;}
</style>
<title>out_nextpoint</title>
<path class="st0" d="M14.5,7.2l-0.7,0.7c-0.2,0.2-0.5,0.2-0.7,0L12,6.8l-1.1,1.1c-0.2,0.2-0.5,0.2-0.7,0L9.5,7.2
	C9.3,7,9.3,6.7,9.5,6.5l1.8-1.8c0.4-0.4,1-0.4,1.4,0c0,0,0,0,0,0l1.8,1.8C14.7,6.7,14.7,7,14.5,7.2z M16.8,14.5l-0.7-0.7
	c-0.2-0.2-0.2-0.5,0-0.7l1.1-1.1l-1.1-1.1c-0.2-0.2-0.2-0.5,0-0.7l0.7-0.7c0.2-0.2,0.5-0.2,0.7,0l1.8,1.8c0.4,0.4,0.4,1,0,1.4
	c0,0,0,0,0,0l-1.8,1.8C17.3,14.7,17,14.7,16.8,14.5z M9.5,16.8l0.7-0.7c0.2-0.2,0.5-0.2,0.7,0l1.1,1.1l1.1-1.1
	c0.2-0.2,0.5-0.2,0.7,0l0.7,0.7c0.2,0.2,0.2,0.5,0,0.7l-1.8,1.8c-0.4,0.4-1,0.4-1.4,0c0,0,0,0,0,0l-1.8-1.8
	C9.3,17.3,9.3,17,9.5,16.8z M7.2,9.5l0.7,0.7c0.2,0.2,0.2,0.5,0,0.7L6.8,12l1.1,1.1c0.2,0.2,0.2,0.5,0,0.7l-0.7,0.7
	c-0.2,0.2-0.5,0.2-0.7,0l-1.8-1.8c-0.4-0.4-0.4-1,0-1.4c0,0,0,0,0,0l1.8-1.8C6.7,9.3,7,9.3,7.2,9.5z"/>
<circle class="st0" cx="12" cy="12" r="2.4"/>
<rect y="0" class="st1" width="24" height="24"/>
</svg>
