<?xml version="1.0" encoding="utf-8"?>
<!-- Generator: Adobe Illustrator 23.0.3, SVG Export Plug-In . SVG Version: 6.00 Build 0)  -->
<svg version="1.1" id="Layer_1" xmlns="http://www.w3.org/2000/svg" xmlns:xlink="http://www.w3.org/1999/xlink" x="0px" y="0px"
	 viewBox="0 0 24 24" style="enable-background:new 0 0 24 24;" xml:space="preserve">
<style type="text/css">
	.st0{fill:#3C3835;}
	.st1{fill:none;}
</style>
<title>out_fixpoint</title>
<path class="st0" d="M12.6,9.1C11,8.8,9.5,9.8,9.1,11.4c-0.3,1.6,0.7,3.1,2.3,3.4c1.6,0.3,3.1-0.7,3.4-2.3c0.1-0.4,0.1-0.8,0-1.1
	C14.6,10.3,13.7,9.4,12.6,9.1z M18.5,11.3c-0.3-3-2.7-5.4-5.8-5.8V4.7C12.7,4.3,12.4,4,12,4l0,0c-0.4,0-0.7,0.3-0.7,0.7v0.8
	c-3,0.3-5.4,2.7-5.8,5.8H4.7C4.3,11.3,4,11.6,4,12l0,0c0,0.4,0.3,0.7,0.7,0.7h0.8c0.3,3,2.7,5.4,5.8,5.8v0.8c0,0.4,0.3,0.7,0.7,0.7
	l0,0c0.4,0,0.7-0.3,0.7-0.7v-0.8c3-0.3,5.4-2.7,5.8-5.8h0.8c0.4,0,0.7-0.3,0.7-0.7l0,0c0-0.4-0.3-0.7-0.7-0.7H18.5z M12.7,17.1
	c-2.8,0.4-5.3-1.6-5.7-4.4C6.6,9.9,8.6,7.3,11.3,7c2.8-0.4,5.3,1.6,5.7,4.4c0.1,0.4,0.1,0.9,0,1.3C16.8,14.9,14.9,16.8,12.7,17.1z"
	/>
<rect y="0" class="st1" width="24" height="24"/>
</svg>
