<?xml version="1.0" encoding="utf-8"?>
<!-- Generator: Adobe Illustrator 23.0.3, SVG Export Plug-In . SVG Version: 6.00 Build 0)  -->
<svg version="1.1" id="Layer_1" xmlns="http://www.w3.org/2000/svg" xmlns:xlink="http://www.w3.org/1999/xlink" x="0px" y="0px"
	 viewBox="0 0 24 24" style="enable-background:new 0 0 24 24;" xml:space="preserve">
<style type="text/css">
	.st0{fill:#3C3835;}
</style>
<title>out_info_black</title>
<path class="st0" d="M6.5,18.4h11c0.3,0,0.5,0.2,0.5,0.5v0.6c0,0.3-0.2,0.5-0.5,0.5h-11C6.2,20,6,19.8,6,19.5v-0.6
	C6,18.7,6.2,18.4,6.5,18.4z"/>
<path class="st0" d="M12,4C9.5,4,7.5,6,7.5,8.5c0,3.4,4.5,8.4,4.5,8.4s4.5-5,4.5-8.4C16.5,6,14.5,4,12,4z M13.4,8.3
	c0,0.8-0.6,1.4-1.4,1.5c-0.8,0-1.4-0.6-1.5-1.4c0-0.8,0.6-1.4,1.4-1.5c0,0,0,0,0,0C12.8,6.9,13.4,7.5,13.4,8.3
	C13.4,8.3,13.4,8.3,13.4,8.3L13.4,8.3z"/>
</svg>
