<svg xmlns="http://www.w3.org/2000/svg" viewBox="0 0 1024 256"><defs><style>.cls-1{fill:#ff0013;}.cls-2{fill:#fff;}</style></defs><g id="로고"><path class="cls-1" d="M300.76,219.44a1040.38,1040.38,0,0,1-188.93,0,32.81,32.81,0,0,1-29.75-30.83,1052,1052,0,0,1,0-121.22,32.81,32.81,0,0,1,29.75-30.83,1040.38,1040.38,0,0,1,188.93,0,32.83,32.83,0,0,1,29.76,30.83,1052,1052,0,0,1,0,121.22,32.83,32.83,0,0,1-29.76,30.83"/><path class="cls-2" d="M2104A.4,104.33A15.39,15.39,0,0,0,269.69,89l0,0-126.4.28h-.75l0,0A15.38,15.38,0,0,0,128,104.67l.11,52a10.34,10.34,0,0,0,15.71,8.82l7.77-4.72-.06-27.05a2.69,2.69,0,0,1,2.68-2.69l13.09,0a2.68,2.68,0,0,1,2.69,2.68l0,15.89,36.23-22,62.6,37.67a10.35,10.35,0,0,0,15.68-8.89Z"/><path class="cls-2" d="M457,171.4H382.23v-2.73l42.58-65.07H387.05v-19h71.51v2.73l-42.42,65.07H457Z"/><path class="cls-2" d="M495.06,53.3V72.58H473.21V53.3Zm0,31.34V171.4H473.21V104A.64Z"/><path class="cls-2" d="M597.28,128c0,26-16.06,45.79-40,45.79-8.19,0-15.1-1.92-20.72-5.46V202.7h-22V104A.64h19.28v4.82c5.79-4.66,13.34-7.23,22.34-7.23C581.06,82.23,597.28,101.51,597.28,128Zm-23.13,0c0-14.46-6.59-26.35-21.21-26.35-13.66,0-19.13,10.6-19.13,26.35s5.31,26.35,19.93,26.35C567.88,154.37,574.15,142.64,574.15,128Z"/><path class="cls-2" d="M683.92,104A.64,652.43,171.4H630.57L599.08,104A.64h21.85l20.57,60.09,20.57-60.09Z"/><path class="cls-2" d="M717.21,53.3V72.58H695.36V53.3Zm0,31.34V171.4H695.36V104A.64Z"/><path class="cls-2" d="M775.73,153.41c8,0,14.62-3.7,18-10.93l21.85,6.27c-6.43,15.74-22.34,25.06-38.57,25.06-27.15,0-45.15-18.8-45.15-44.67,0-28.11,17.52-46.91,43.87-46.91,28.44,0,43.06,21.69,40.65,51.9h-60.9C757.09,146.18,764,153.41,775.73,153.41Zm-19.6-36.15h38.08c-1.45-10.29-6.11-16.07-18.48-16.07C764,101.19,758.22,107.61,756.13,117.26Z"/><path class="cls-2" d="M943.67,104A.64,917.16,171.4H899l-17.51-56.56-19,56.56H845.82L819.3,104A.48l21.53.16,15.75,51.74,15.91-51.74h18.16l15.9,51.74L922.3,104A.64Z"/></g></svg>