<?xml version="1.0" encoding="utf-8"?>
<!-- Generator: Adobe Illustrator 25.0.0, SVG Export Plug-In . SVG Version: 6.00 Build 0)  -->
<svg version="1.1" id="Layer_1" xmlns="http://www.w3.org/2000/svg" xmlns:xlink="http://www.w3.org/1999/xlink" x="0px" y="0px"
	 viewBox="0 0 1024 256" style="enable-background:new 0 0 1024 256;" xml:space="preserve">
<style type="text/css">
	.st0{fill:#FF0013;}
	.st1{fill:#FFFFFF;}
</style>
<g id="로고">
	<path class="st0" d="M310.9,215.1c-59.8,5.4-120,5.4-179.9,0c-15.4-1.4-27.5-13.9-28.3-29.4c-2.2-38.4-2.2-77,0-115.4
		c0.9-15.4,12.9-27.9,28.3-29.3c59.8-5.4,120-5.4,179.9,0c15.4,1.4,27.5,13.9,28.3,29.4c2.2,38.4,2.2,77,0,115.4
		C338.3,201.2,326.3,213.6,310.9,215.1"/>
	<path class="st1" d="M295.3,105.5c0-7.8-6.2-14.3-14-14.6l0,0L161,91.1h-0.7c-7.8,0.4-14,6.8-13.9,14.7l0.1,49.5
		c0,5.4,4.4,9.8,9.9,9.8c1.8,0,3.6-0.5,5.1-1.5l7.4-4.5l-0.1-25.8c0-1.4,1.1-2.6,2.6-2.6h12.5c1.4,0,2.6,1.1,2.6,2.5c0,0,0,0,0,0
		v15.1l34.5-21l59.6,35.9c4.7,2.8,10.7,1.3,13.5-3.4c0.9-1.5,1.4-3.2,1.4-5L295.3,105.5z"/>
	<path d="M459.6,169.3h-71.1v-2.6l40.5-62h-36V86.7h68.1v2.6l-40.4,62h38.9L459.6,169.3z"/>
	<path d="M495.9,56.9v18.4h-20.8V56.9H495.9z M495.9,86.7v82.6h-20.8V86.7H495.9z"/>
	<path d="M593.2,128c0,24.8-15.3,43.6-38.1,43.6c-7.8,0-14.4-1.8-19.7-5.2v32.7h-21V86.7h18.4v4.6c5.5-4.4,12.7-6.9,21.3-6.9
		C577.8,104A.4,593.2,102.8,593.2,128z M571.2,128c0-13.8-6.3-25.1-20.2-25.1c-13,0-18.2,10.1-18.2,25.1s5,25.1,19,25.1
		C565.2,153.1,571.2,141.9,571.2,128L571.2,128z"/>
	<path d="M675.7,86.7l-30,82.6h-20.8l-30-82.6h20.8l19.6,57.2l19.6-57.2L675.7,86.7z"/>
	<path d="M707.4,56.9v18.4h-20.8V56.9H707.4z M707.4,86.7v82.6h-20.8V86.7H707.4z"/>
	<path d="M763.1,152.2c7.7,0,13.9-3.5,17.1-10.4l20.8,6c-6.1,15-21.3,23.9-36.7,23.9c-25.8,0-43-17.9-43-42.5
		c0-26.8,16.7-44.7,41.8-44.7c27.1,0,41,20.7,38.7,49.4h-58C745.3,145.3,751.9,152.2,763.1,152.2z M744.4,117.8h36.3
		c-1.4-9.8-5.8-15.3-17.6-15.3C751.9,102.5,746.4,108.6,744.4,117.8z"/>
	<path d="M923,86.7l-25.2,82.6h-17.3l-16.7-53.9l-18,53.9h-16l-25.2-82.8l20.5,0.2l15,49.3l15.1-49.3h17.3l15.1,49.3l15-49.3
		L923,86.7z"/>
</g>
</svg>
